<?xml version="1.0" encoding="utf-8"?>
<!-- Generator: Adobe Illustrator 21.1.0, SVG Export Plug-In . SVG Version: 6.00 Build 0)  -->
<svg version="1.1" id="svg5104" xmlns:svg="http://www.w3.org/2000/svg"
	 xmlns="http://www.w3.org/2000/svg" xmlns:xlink="http://www.w3.org/1999/xlink" x="0px" y="0px" viewBox="0 0 1024 251"
	 style="enable-background:new 0 0 1024 251;" xml:space="preserve">
<style type="text/css">
	.st0{fill:#FFFFFF;}
	.st1{fill:#FFFFFF;stroke:#333333;stroke-width:0.1538;stroke-miterlimit:3.864;}
</style>
<path id="path4614" class="st0" d="M922.1,123.9V16.1L811.7,148.6h89.8h20.6h89.8V16.1L922.1,123.9z"/>
<path id="path4756" class="st0" d="M719.9,78c0-39,31.6-70.7,70.7-70.7s70.7,31.6,70.7,70.7c0,0.6,0,1.2,0,1.8h-72.1v68.9
	C750.7,147.8,719.9,116.5,719.9,78"/>
<path id="path4638" class="st1" d="M23.2,193.6h2.6c6.1,0,11.3,0.1,11.3,7.7c0,7.4-5.6,7.4-11.3,7.4h-2.6V193.6z M7.6,241.2h15.7
	v-20h8.9c13.7,0,21.3-6.2,21.3-20.5c0-13.8-9-19.8-21.9-19.8h-24V241.2z M94.5,204.2V181H78.9v60.3h15.7v-24.7h22.6v24.7h15.7V181
	h-15.7v23.3H94.5z M188.7,194.2c9.4,0,17,7.6,17,15.9c0,10.4-7.7,18-17,18c-9.4,0-17-7.6-17-18C171.7,201.8,179.4,194.2,188.7,194.2
	z M188.7,179c-17.3,0-33.3,12.8-33.3,31c0,19.5,14,33.2,33.3,33.2s33.3-13.7,33.3-33.2C222.1,191.8,206.1,179,188.7,179z
	 M279.6,194.2V181h-34.3v60.3h34.3V228H261v-10.4h15.4v-13.3H261v-10.1H279.6z M308.7,241.2h15.7v-36.9h0.2l28.7,36.9h15.7V181
	h-15.7v36.9H353L324.3,181h-15.7V241.2z M415.6,181H400v60.3h15.7V181z M460.5,209l-23.6,32.2h18.9l13.8-19.7l12.6,19.7h18.9
	L478.9,209l19.3-28.1h-19.3l-9.2,15.6l-9.2-15.6h-19.3L460.5,209z M551.8,241.2h15.6l5-34.7h0.2l13.8,34.7h6.2l14.5-34.7h0.2
	l4.4,34.7h15.7l-9.1-60.3h-15.6l-13,32.2L577.5,181h-15.4L551.8,241.2z M686.2,194.2V181h-34.3v60.3h34.3V228h-18.6v-10.4H683v-13.3
	h-15.4v-10.1H686.2z M756.8,182.4c-4.6-1.9-9.3-3-14.3-3c-8.5,0-17,3.7-22.9,9.8c-5.8,5.9-8.9,13.8-8.9,22.1c0,9,3,16.8,9.7,22.8
	c6.2,5.7,14.2,8.9,22.6,8.9c4.9,0,8.6-1.2,13.8-2.8v-18.8c-3.3,3.9-8.4,6.4-13.5,6.4c-9.8,0-16.3-6.9-16.3-16.4
	c0-9.4,6.5-16.7,16.1-16.7c5.4,0,10.6,2.3,13.8,6.6V182.4z M817,218.8h-13l6.5-19.2h0.2L817,218.8z M821.2,230.8l3.9,10.5h16.7
	L819.1,181H802l-23.2,60.3h16.6l4.2-10.5H821.2z M864.5,241.2h15.7v-36.9h0.2l28.7,36.9h15.7V181h-15.7v36.9h-0.2L880.2,181h-15.7
	V241.2z M983.1,194.2c9.4,0,17,7.6,17,15.9c0,10.4-7.7,18-17,18c-9.4,0-17-7.6-17-18C966.1,201.8,973.7,194.2,983.1,194.2z
	 M983.1,179c-17.4,0-33.3,12.8-33.3,31c0,19.5,14,33.2,33.3,33.2c19.4,0,33.3-13.7,33.3-33.2C1016.4,191.8,1000.4,179,983.1,179z"/>
</svg>
