<?xml version="1.0" encoding="iso-8859-1"?>
<!-- Generator: Adobe Illustrator 19.0.0, SVG Export Plug-In . SVG Version: 6.00 Build 0)  -->
<svg version="1.1" id="Capa_1" xmlns="http://www.w3.org/2000/svg" xmlns:xlink="http://www.w3.org/1999/xlink" x="0px" y="0px"
	 viewBox="0 0 512 512" style="enable-background:new 0 0 512 512;" xml:space="preserve">
<path style="fill:#FBC640;" d="M501.498,489.449L22.551,10.502C17.18,5.131,7.997,8.935,7.997,16.53v478.947
	c0,4.709,3.817,8.526,8.526,8.526H495.47C503.065,504.003,506.869,494.82,501.498,489.449z M279.154,416.225H105.719
	c-4.709,0-8.526-3.817-8.526-8.526V234.264c0-7.596,9.183-11.399,14.554-6.029L285.182,401.67
	C290.553,407.041,286.749,416.225,279.154,416.225z"/>
<path style="fill:#F9A638;" d="M485.069,473.02h-273.34c-95.407,0-172.75-77.343-172.75-172.75V26.93L22.551,10.502
	C17.18,5.131,7.997,8.935,7.997,16.53v478.947c0,4.709,3.817,8.526,8.526,8.526H495.47c7.595,0,11.399-9.183,6.028-14.554
	L485.069,473.02z"/>
<path d="M507.153,483.794L28.206,4.847C23.463,0.105,16.394-1.3,10.2,1.265C4.004,3.832,0,9.824,0,16.53v478.948
	C0,504.588,7.412,512,16.522,512h334.291c4.416,0,7.997-3.58,7.997-7.997s-3.58-7.997-7.997-7.997H16.522
	c-0.292,0-0.528-0.237-0.528-0.529V16.53c0-0.19,0-0.353,0.326-0.488c0.327-0.136,0.443-0.019,0.576,0.115l57.39,57.39
	l-33.549,33.549c-3.123,3.123-3.123,8.186,0,11.309c1.561,1.561,3.608,2.342,5.655,2.342s4.093-0.781,5.655-2.342l33.549-33.549
	l12.453,12.453l-14.274,14.274c-3.123,3.123-3.123,8.186,0,11.309c1.561,1.561,3.608,2.342,5.655,2.342s4.093-0.781,5.655-2.342
	l14.274-14.274l12.453,12.453l-14.274,14.274c-3.123,3.123-3.123,8.186,0,11.309c1.561,1.561,3.608,2.342,5.655,2.342
	s4.093-0.781,5.655-2.342l14.274-14.274l12.453,12.453l-33.549,33.549c-3.123,3.123-3.123,8.186,0,11.309
	c1.561,1.561,3.608,2.342,5.655,2.342s4.093-0.781,5.655-2.342l33.549-33.549l12.453,12.453l-14.274,14.273
	c-3.123,3.123-3.123,8.186,0,11.309c1.561,1.562,3.608,2.342,5.655,2.342c2.046,0,4.093-0.781,5.655-2.342l14.274-14.274
	l12.453,12.453l-14.274,14.274c-3.123,3.123-3.123,8.186,0,11.309c1.561,1.561,3.608,2.342,5.655,2.342s4.093-0.781,5.655-2.342
	l14.274-14.274l12.453,12.453l-33.549,33.549c-3.123,3.123-3.123,8.186,0,11.309c1.561,1.562,3.608,2.342,5.655,2.342
	c2.046,0,4.093-0.781,5.655-2.342l33.549-33.549l12.453,12.453l-14.274,14.274c-3.123,3.123-3.123,8.186,0,11.309
	c1.561,1.561,3.608,2.342,5.655,2.342s4.093-0.781,5.655-2.342l14.274-14.274l12.453,12.453l-14.274,14.274
	c-3.123,3.123-3.123,8.186,0,11.309c1.561,1.561,3.608,2.342,5.655,2.342c2.047,0,4.093-0.781,5.655-2.342l14.274-14.274
	l12.453,12.453l-33.549,33.549c-3.123,3.123-3.123,8.186,0,11.309c1.561,1.561,3.608,2.342,5.655,2.342
	c2.047,0,4.093-0.781,5.655-2.342l33.549-33.549l12.453,12.453l-14.274,14.274c-3.123,3.123-3.123,8.186,0,11.309
	c1.561,1.561,3.608,2.342,5.655,2.342s4.093-0.781,5.655-2.342l14.274-14.274l12.453,12.453l-14.273,14.274
	c-3.123,3.123-3.123,8.186,0,11.309c1.561,1.561,3.608,2.342,5.655,2.342s4.093-0.781,5.655-2.342l14.274-14.274l12.453,12.453
	l-33.549,33.549c-3.123,3.123-3.123,8.186,0,11.309c1.561,1.561,3.608,2.342,5.655,2.342s4.093-0.781,5.655-2.342l33.549-33.549
	l12.453,12.453l-14.273,14.274c-3.123,3.123-3.123,8.186,0,11.309c1.561,1.561,3.608,2.342,5.655,2.342s4.093-0.781,5.655-2.342
	l14.273-14.274l12.453,12.453l-14.274,14.274c-3.123,3.123-3.123,8.186,0,11.309c1.561,1.561,3.608,2.342,5.655,2.342
	s4.093-0.781,5.655-2.342l14.274-14.274l12.453,12.453l-33.549,33.548c-3.123,3.123-3.123,8.186,0,11.309
	c1.561,1.562,3.608,2.342,5.655,2.342c2.046,0,4.093-0.781,5.655-2.342l33.549-33.548l53.814,53.814
	c0.134,0.134,0.25,0.25,0.115,0.577c-0.135,0.326-0.299,0.326-0.488,0.326h-111.27c-4.416,0-7.997,3.58-7.997,7.997
	s3.58,7.997,7.997,7.997H495.47c6.706,0,12.698-4.004,15.264-10.199C513.301,495.605,511.895,488.537,507.153,483.794z"/>
<path d="M97.193,370.025c-4.416,0-7.997,3.58-7.997,7.997v29.677c0,9.11,7.412,16.523,16.523,16.523h173.435
	c6.706,0,12.698-4.004,15.265-10.2c2.566-6.196,1.16-13.263-3.582-18.006L117.402,222.582c-4.741-4.742-11.81-6.147-18.006-3.582
	c-6.196,2.567-10.2,8.558-10.2,15.265v105.571c0,4.416,3.58,7.997,7.997,7.997c4.416,0,7.997-3.58,7.997-7.997V234.264
	c0-0.19,0-0.354,0.326-0.488c0.328-0.134,0.443-0.019,0.577,0.115l173.434,173.434c0.134,0.134,0.25,0.25,0.115,0.576
	s-0.299,0.326-0.488,0.326H105.719c-0.292,0-0.529-0.237-0.529-0.529v-29.677C105.19,373.605,101.61,370.025,97.193,370.025z"/>
<g>
</g>
<g>
</g>
<g>
</g>
<g>
</g>
<g>
</g>
<g>
</g>
<g>
</g>
<g>
</g>
<g>
</g>
<g>
</g>
<g>
</g>
<g>
</g>
<g>
</g>
<g>
</g>
<g>
</g>
</svg>
